<?xml version="1.0"?>
<svg xmlns="http://www.w3.org/2000/svg" viewBox="0 0 64 64" width="512" height="512">
    <path d="m54.952 28.427 6.048-26.427-29 5-30-5 7 27-7 27 30 6 30-6z" fill="#dfdeed"/>
    <path d="m32 7-30-5 7 27-7 27 30 6z" fill="#babac6"/>
    <path d="m10 9 17 3v5l-17-3z" fill="#f73445"/>
    <path d="m51 30-15 3v5l15-3z" fill="#fed966"/>
    <path d="m21 31.765v5l7 1.235v-5z" fill="#92b1f9"/>
    <path d="m53 9.765v5l-7 1.235v-5z" fill="#f59536"/>
    <g fill="#393939">
        <path d="m18.50039 11.86866h1.99921v17.26268h-1.99921z"
              transform="matrix(.17378534 -.98478356 .98478356 .17378534 -4.07688 36.14068)"/>
        <path d="m24.00039 23.23211h1.99921v8.12367h-1.99921z"
              transform="matrix(.17382642 -.98477631 .98477631 .17382642 -6.22409 47.16894)"/>
        <path d="m14.83389 22.62273h1.99921v5.75455h-1.99921z"
              transform="matrix(.17377571 -.98478526 .98478526 .17377571 -12.03 36.66131)"/>
        <path d="m23.00039 50.23211h1.99921v8.12367h-1.99921z"
              transform="matrix(.17382642 -.98477631 .98477631 .17382642 -33.63923 68.49085)"/>
        <path d="m13.83389 49.62273h1.99921v5.75455h-1.99921z"
              transform="matrix(.17377571 -.98478526 .98478526 .17377571 -39.44543 57.98459)"/>
        <path d="m18.50039 38.86866h1.99921v17.26268h-1.99921z"
              transform="matrix(.17378534 -.98478356 .98478356 .17378534 -30.66603 58.44848)"/>
        <path d="m14.50008 30.95049h1.99985v5.09902h-1.99985z"
              transform="matrix(.19611609 -.98058068 .98058068 .19611609 -20.38925 42.12911)"/>
        <path d="m19.00039 33.36059h1.99922v16.27882h-1.99922z"
              transform="matrix(.18428862 -.98287217 .98287217 .18428862 -24.47497 53.50947)"/>
    </g>
    <path d="m35.86866 19.50039h17.26268v1.99921h-17.26268z" fill="#646464"
          transform="matrix(.9847639 -.17389671 .17389671 .9847639 -2.88688 8.05075)"/>
    <path d="m34.93816 26.29434h8.12367v1.99921h-8.12367z" fill="#646464"
          transform="matrix(.9847639 -.17389671 .17389671 .9847639 -4.15212 7.19783)"/>
    <path d="m45.28923 24.50039h5.75455v1.99921h-5.75455z" fill="#646464"
          transform="matrix(.9847639 -.17389671 .17389671 .9847639 -3.7005 8.76452)"/>
    <path d="m35.93816 53.29434h8.12367v1.99921h-8.12367z" fill="#646464"
          transform="matrix(.9847639 -.17389671 .17389671 .9847639 -8.8321 7.7831)"/>
    <path d="m46.28923 51.50039h5.75455v1.99921h-5.75455z" fill="#646464"
          transform="matrix(.9847639 -.17389671 .17389671 .9847639 -8.38048 9.34979)"/>
    <path d="m35.86866 46.50039h17.26268v1.99921h-17.26268z" fill="#646464"
          transform="matrix(.9847639 -.17389671 .17389671 .9847639 -7.58209 8.46212)"/>
    <path d="m37.95049 13.50008h5.09902v1.99985h-5.09902z" fill="#646464"
          transform="matrix(.98054 -.1963 .1963 .98054 -2.0584 8.23243)"/>
    <path d="m35.86059 40.50039h16.27882v1.99922h-16.27882z" fill="#646464"
          transform="matrix(.98280575 -.1846425 .1846425 .98280575 -6.90611 8.83783)"/>
</svg>
